<svg width="18" height="18" viewBox="0 0 18 18" fill="#1A1A1A" xmlns="http://www.w3.org/2000/svg">
<path fill-rule="evenodd" clip-rule="evenodd" d="M11.8535 3.99996C12.0488 3.8047 12.3654 3.8047 12.5606 3.99996L16.8535 8.29286C17.244 8.68338 17.244 9.31654 16.8535 9.70707L12.5606 14C12.3654 14.1952 12.0488 14.1952 11.8535 14C11.6583 13.8047 11.6583 13.4881 11.8535 13.2929L15.6464 9.49996H1.35352C1.07737 9.49996 0.853516 9.2761 0.853516 8.99996C0.853516 8.72382 1.07737 8.49996 1.35352 8.49996H15.6464L11.8535 4.70707C11.6583 4.51181 11.6583 4.19522 11.8535 3.99996Z" fill="inherit"/>
<path fill-rule="evenodd" clip-rule="evenodd" d="M11.8535 3.99996C12.0488 3.8047 12.3654 3.8047 12.5606 3.99996L16.8535 8.29286C17.244 8.68338 17.244 9.31654 16.8535 9.70707L12.5606 14C12.3654 14.1952 12.0488 14.1952 11.8535 14C11.6583 13.8047 11.6583 13.4881 11.8535 13.2929L15.6464 9.49996H1.35352C1.07737 9.49996 0.853516 9.2761 0.853516 8.99996C0.853516 8.72382 1.07737 8.49996 1.35352 8.49996H15.6464L11.8535 4.70707C11.6583 4.51181 11.6583 4.19522 11.8535 3.99996Z" fill="inherit"/>
<path fill-rule="evenodd" clip-rule="evenodd" d="M11.8535 3.99996C12.0488 3.8047 12.3654 3.8047 12.5606 3.99996L16.8535 8.29286C17.244 8.68338 17.244 9.31654 16.8535 9.70707L12.5606 14C12.3654 14.1952 12.0488 14.1952 11.8535 14C11.6583 13.8047 11.6583 13.4881 11.8535 13.2929L15.6464 9.49996H1.35352C1.07737 9.49996 0.853516 9.2761 0.853516 8.99996C0.853516 8.72382 1.07737 8.49996 1.35352 8.49996H15.6464L11.8535 4.70707C11.6583 4.51181 11.6583 4.19522 11.8535 3.99996Z" fill="inherit"/>
<path fill-rule="evenodd" clip-rule="evenodd" d="M11.8535 3.99996C12.0488 3.8047 12.3654 3.8047 12.5606 3.99996L16.8535 8.29286C17.244 8.68338 17.244 9.31654 16.8535 9.70707L12.5606 14C12.3654 14.1952 12.0488 14.1952 11.8535 14C11.6583 13.8047 11.6583 13.4881 11.8535 13.2929L15.6464 9.49996H1.35352C1.07737 9.49996 0.853516 9.2761 0.853516 8.99996C0.853516 8.72382 1.07737 8.49996 1.35352 8.49996H15.6464L11.8535 4.70707C11.6583 4.51181 11.6583 4.19522 11.8535 3.99996Z" fill="inherit"/>
</svg>
