<svg width="83" height="24" viewBox="0 0 83 24" fill="none" xmlns="http://www.w3.org/2000/svg">
<path fill-rule="evenodd" clip-rule="evenodd" d="M81.2346 18.8472C81.2346 19.5261 81.2715 20.0871 81.3452 20.5304C81.4336 20.9599 81.5442 21.3063 81.6769 21.5695C81.8095 21.8188 81.957 22.0059 82.1191 22.1305C82.296 22.2414 82.4803 22.3245 82.6719 22.3799V23.315H75.7508C75.6328 23.0518 75.5001 22.7055 75.3527 22.276C75.2201 21.8327 75.1537 21.2993 75.1537 20.6759C74.6672 21.1469 74.1881 21.5833 73.7164 21.9851C73.2594 22.3868 72.7435 22.7401 72.1685 23.0449C71.5936 23.3358 70.9303 23.5644 70.1784 23.7306C69.4266 23.9107 68.52 24.0008 67.4586 24.0008C66.3825 24.0008 65.3874 23.8484 64.4734 23.5436C63.5742 23.2527 62.7929 22.8163 62.1295 22.2344C61.4662 21.6526 60.9502 20.9253 60.5817 20.0525C60.2131 19.1797 60.0289 18.1684 60.0289 17.0185C60.0289 16.0903 60.1836 15.2314 60.4932 14.4417C60.8028 13.6382 61.2377 12.9386 61.7978 12.3429C62.3728 11.7333 63.0656 11.2346 63.8764 10.8467C64.7019 10.445 65.6233 10.1748 66.6405 10.0363L72.7656 9.18427C72.9867 9.15656 73.2226 9.115 73.4732 9.05958C73.7385 9.00417 73.9818 8.91412 74.2029 8.78944C74.424 8.6509 74.6083 8.4708 74.7557 8.24914C74.9031 8.01363 74.9768 7.70192 74.9768 7.31402C74.9768 6.93997 74.9105 6.60055 74.7778 6.29577C74.6599 5.97714 74.4535 5.70699 74.1587 5.48533C73.8638 5.24982 73.4658 5.06972 72.9646 4.94504C72.4781 4.82035 71.8663 4.75801 71.1293 4.75801C70.289 4.75801 69.6109 4.84113 69.0949 5.00738C68.5937 5.15977 68.1957 5.38143 67.9009 5.67236C67.606 5.94943 67.3923 6.28192 67.2596 6.66982C67.1269 7.04387 67.0311 7.44563 66.9721 7.87509H60.7143C60.7143 7.59802 60.7586 7.21704 60.847 6.73216C60.9303 6.32976 61.0615 5.90029 61.2408 5.44377H53.3236V23.315H47.0658V19.2715C46.9879 19.3926 46.905 19.5144 46.8171 19.6369C46.4338 20.1772 45.9473 20.7105 45.3576 21.237C44.768 21.7634 44.0678 22.2344 43.257 22.6501C42.4462 23.0518 41.5248 23.3774 40.4929 23.6267C39.4758 23.8761 38.3407 24.0008 37.0876 24.0008C35.4808 24.0008 33.9698 23.7722 32.5546 23.315C31.1541 22.8717 29.9232 22.1652 28.8618 21.1954C27.9926 20.3786 27.2759 19.3659 26.7117 18.1573V23.315H20.8299V5.0905H20.7414L16.2084 23.315H10.5034L5.99245 5.0905H5.88189V23.315H0V0.664245H9.41987L13.4885 17.1017H13.5991L17.5793 0.664245H26.7117V5.79265C27.0996 4.97776 27.5804 4.23113 28.1542 3.55274C29.0829 2.47215 30.2623 1.61322 31.6922 0.975953C33.1369 0.324829 34.869 -0.000732422 36.8886 -0.000732422C39.0261 -0.000732422 40.8246 0.331756 42.284 0.996734C43.7434 1.64786 44.9154 2.57605 45.7999 3.78133C46.3024 4.45491 46.7244 5.20638 47.0658 6.03573V0.664245H63.2742V2.49263C63.58 2.22259 63.9208 1.9664 64.2965 1.72405C65.0631 1.22532 65.9918 0.816636 67.0827 0.498001C68.1736 0.179366 69.4782 0.0131213 70.9966 -0.000732422C73.1489 -0.000732422 74.8884 0.207073 76.2151 0.622684C77.5566 1.02444 78.5959 1.55781 79.333 2.22279C80.0848 2.87391 80.586 3.60816 80.8366 4.42552C81.1019 5.22904 81.2346 6.03255 81.2346 6.83607V18.8472ZM73.827 12.8001C74.2103 12.6338 74.5935 12.4537 74.9768 12.2598V14.5456C74.9768 15.3076 74.8736 15.9726 74.6672 16.5406C74.4609 17.0947 74.1955 17.5658 73.8712 17.9537C73.5469 18.3416 73.1783 18.6602 72.7656 18.9096C72.3528 19.1451 71.9401 19.3321 71.5273 19.4706C71.1145 19.6092 70.7239 19.7061 70.3553 19.7616C69.9868 19.8031 69.6846 19.8239 69.4487 19.8239C69.0065 19.8239 68.5937 19.7685 68.2104 19.6577C67.8272 19.5468 67.4881 19.3806 67.1933 19.1589C66.9132 18.9234 66.6921 18.6325 66.5299 18.2861C66.3677 17.9259 66.2867 17.5034 66.2867 17.0185C66.2867 16.4367 66.3751 15.9518 66.552 15.5639C66.7436 15.176 67.0164 14.8504 67.3702 14.5872C67.7387 14.3101 68.1957 14.0885 68.7411 13.9222C69.2866 13.756 69.9205 13.6105 70.6428 13.4858L72.3012 13.1949C72.9351 13.0841 73.4437 12.9525 73.827 12.8001ZM31.847 14.6496C31.8028 14.3032 31.7807 14.0261 31.7807 13.8183H47.0658V16.5821H41.5101C41.3922 16.9978 41.1932 17.3718 40.9131 17.7043C40.6477 18.0229 40.3308 18.3 39.9622 18.5355C39.5937 18.7572 39.1883 18.9303 38.7461 19.055C38.3185 19.1659 37.8837 19.2213 37.4414 19.2213C36.5864 19.2213 35.8493 19.1174 35.2302 18.9096C34.6258 18.7018 34.1098 18.4316 33.6823 18.0991C33.2696 17.7666 32.9379 17.3995 32.6873 16.9978C32.4367 16.5821 32.245 16.1735 32.1123 15.7717C31.9797 15.3699 31.8912 14.9959 31.847 14.6496ZM41.3111 7.41792C41.6354 8.0829 41.7976 8.91412 41.7976 9.91159H32.0018C32.0018 8.91412 32.1566 8.0829 32.4661 7.41792C32.7905 6.75294 33.1885 6.2265 33.6602 5.8386C34.1467 5.43684 34.6774 5.15977 35.2523 5.00738C35.8272 4.84113 36.3727 4.75801 36.8886 4.75801C37.4193 4.75801 37.9721 4.84113 38.547 5.00738C39.122 5.15977 39.6453 5.43684 40.117 5.8386C40.6035 6.2265 41.0015 6.75294 41.3111 7.41792Z" fill="#1A1A1A"/>
<path fill-rule="evenodd" clip-rule="evenodd" d="M81.2346 18.8472C81.2346 19.5261 81.2715 20.0871 81.3452 20.5304C81.4336 20.9599 81.5442 21.3063 81.6769 21.5695C81.8095 21.8188 81.957 22.0059 82.1191 22.1305C82.296 22.2414 82.4803 22.3245 82.6719 22.3799V23.315H75.7508C75.6328 23.0518 75.5001 22.7055 75.3527 22.276C75.2201 21.8327 75.1537 21.2993 75.1537 20.6759C74.6672 21.1469 74.1881 21.5833 73.7164 21.9851C73.2594 22.3868 72.7435 22.7401 72.1685 23.0449C71.5936 23.3358 70.9303 23.5644 70.1784 23.7306C69.4266 23.9107 68.52 24.0008 67.4586 24.0008C66.3825 24.0008 65.3874 23.8484 64.4734 23.5436C63.5742 23.2527 62.7929 22.8163 62.1295 22.2344C61.4662 21.6526 60.9502 20.9253 60.5817 20.0525C60.2131 19.1797 60.0289 18.1684 60.0289 17.0185C60.0289 16.0903 60.1836 15.2314 60.4932 14.4417C60.8028 13.6382 61.2377 12.9386 61.7978 12.3429C62.3728 11.7333 63.0656 11.2346 63.8764 10.8467C64.7019 10.445 65.6233 10.1748 66.6405 10.0363L72.7656 9.18427C72.9867 9.15656 73.2226 9.115 73.4732 9.05958C73.7385 9.00417 73.9818 8.91412 74.2029 8.78944C74.424 8.6509 74.6083 8.4708 74.7557 8.24914C74.9031 8.01363 74.9768 7.70192 74.9768 7.31402C74.9768 6.93997 74.9105 6.60055 74.7778 6.29577C74.6599 5.97714 74.4535 5.70699 74.1587 5.48533C73.8638 5.24982 73.4658 5.06972 72.9646 4.94504C72.4781 4.82035 71.8663 4.75801 71.1293 4.75801C70.289 4.75801 69.6109 4.84113 69.0949 5.00738C68.5937 5.15977 68.1957 5.38143 67.9009 5.67236C67.606 5.94943 67.3923 6.28192 67.2596 6.66982C67.1269 7.04387 67.0311 7.44563 66.9721 7.87509H60.7143C60.7143 7.59802 60.7586 7.21704 60.847 6.73216C60.9303 6.32976 61.0615 5.90029 61.2408 5.44377H53.3236V23.315H47.0658V19.2715C46.9879 19.3926 46.905 19.5144 46.8171 19.6369C46.4338 20.1772 45.9473 20.7105 45.3576 21.237C44.768 21.7634 44.0678 22.2344 43.257 22.6501C42.4462 23.0518 41.5248 23.3774 40.4929 23.6267C39.4758 23.8761 38.3407 24.0008 37.0876 24.0008C35.4808 24.0008 33.9698 23.7722 32.5546 23.315C31.1541 22.8717 29.9232 22.1652 28.8618 21.1954C27.9926 20.3786 27.2759 19.3659 26.7117 18.1573V23.315H20.8299V5.0905H20.7414L16.2084 23.315H10.5034L5.99245 5.0905H5.88189V23.315H0V0.664245H9.41987L13.4885 17.1017H13.5991L17.5793 0.664245H26.7117V5.79265C27.0996 4.97776 27.5804 4.23113 28.1542 3.55274C29.0829 2.47215 30.2623 1.61322 31.6922 0.975953C33.1369 0.324829 34.869 -0.000732422 36.8886 -0.000732422C39.0261 -0.000732422 40.8246 0.331756 42.284 0.996734C43.7434 1.64786 44.9154 2.57605 45.7999 3.78133C46.3024 4.45491 46.7244 5.20638 47.0658 6.03573V0.664245H63.2742V2.49263C63.58 2.22259 63.9208 1.9664 64.2965 1.72405C65.0631 1.22532 65.9918 0.816636 67.0827 0.498001C68.1736 0.179366 69.4782 0.0131213 70.9966 -0.000732422C73.1489 -0.000732422 74.8884 0.207073 76.2151 0.622684C77.5566 1.02444 78.5959 1.55781 79.333 2.22279C80.0848 2.87391 80.586 3.60816 80.8366 4.42552C81.1019 5.22904 81.2346 6.03255 81.2346 6.83607V18.8472ZM73.827 12.8001C74.2103 12.6338 74.5935 12.4537 74.9768 12.2598V14.5456C74.9768 15.3076 74.8736 15.9726 74.6672 16.5406C74.4609 17.0947 74.1955 17.5658 73.8712 17.9537C73.5469 18.3416 73.1783 18.6602 72.7656 18.9096C72.3528 19.1451 71.9401 19.3321 71.5273 19.4706C71.1145 19.6092 70.7239 19.7061 70.3553 19.7616C69.9868 19.8031 69.6846 19.8239 69.4487 19.8239C69.0065 19.8239 68.5937 19.7685 68.2104 19.6577C67.8272 19.5468 67.4881 19.3806 67.1933 19.1589C66.9132 18.9234 66.6921 18.6325 66.5299 18.2861C66.3677 17.9259 66.2867 17.5034 66.2867 17.0185C66.2867 16.4367 66.3751 15.9518 66.552 15.5639C66.7436 15.176 67.0164 14.8504 67.3702 14.5872C67.7387 14.3101 68.1957 14.0885 68.7411 13.9222C69.2866 13.756 69.9205 13.6105 70.6428 13.4858L72.3012 13.1949C72.9351 13.0841 73.4437 12.9525 73.827 12.8001ZM31.847 14.6496C31.8028 14.3032 31.7807 14.0261 31.7807 13.8183H47.0658V16.5821H41.5101C41.3922 16.9978 41.1932 17.3718 40.9131 17.7043C40.6477 18.0229 40.3308 18.3 39.9622 18.5355C39.5937 18.7572 39.1883 18.9303 38.7461 19.055C38.3185 19.1659 37.8837 19.2213 37.4414 19.2213C36.5864 19.2213 35.8493 19.1174 35.2302 18.9096C34.6258 18.7018 34.1098 18.4316 33.6823 18.0991C33.2696 17.7666 32.9379 17.3995 32.6873 16.9978C32.4367 16.5821 32.245 16.1735 32.1123 15.7717C31.9797 15.3699 31.8912 14.9959 31.847 14.6496ZM41.3111 7.41792C41.6354 8.0829 41.7976 8.91412 41.7976 9.91159H32.0018C32.0018 8.91412 32.1566 8.0829 32.4661 7.41792C32.7905 6.75294 33.1885 6.2265 33.6602 5.8386C34.1467 5.43684 34.6774 5.15977 35.2523 5.00738C35.8272 4.84113 36.3727 4.75801 36.8886 4.75801C37.4193 4.75801 37.9721 4.84113 38.547 5.00738C39.122 5.15977 39.6453 5.43684 40.117 5.8386C40.6035 6.2265 41.0015 6.75294 41.3111 7.41792Z" fill="#1A1A1A"/>
</svg>
